<svg width="24" height="24" viewBox="0 0 24 24" fill="none" xmlns="http://www.w3.org/2000/svg">
<path fill-rule="evenodd" clip-rule="evenodd" d="M14.9111 6.79747C13.9808 6.53894 13.0253 6.40967 12.0447 6.40967C10.0791 6.40967 8.2107 6.92909 6.43942 7.96795C4.67561 9.0068 3.27054 10.382 2.22421 12.0935C2.07474 12.3551 2 12.6129 2 12.867C2 13.1211 2.07474 13.379 2.22421 13.6405C3.27054 15.352 4.67561 16.7272 6.43942 17.7661C6.76831 17.9589 7.10054 18.1339 7.43613 18.291L8.22126 17.0838C7.86372 16.9239 7.51267 16.7403 7.16811 16.5329C5.67336 15.6211 4.42897 14.3991 3.43496 12.867C4.57098 11.1032 5.99473 9.78407 7.70622 8.90964C7.25032 9.68692 7.02237 10.5277 7.02237 11.432C7.02237 12.8147 7.5119 13.9993 8.49097 14.9858C8.71656 15.2097 8.95252 15.408 9.19883 15.5807L14.9111 6.79747ZM10.4457 17.7576C10.9668 17.8455 11.4998 17.8894 12.0447 17.8894C13.7936 17.8894 15.4154 17.4372 16.9102 16.5329C18.4124 15.6211 19.6605 14.3991 20.6545 12.867C19.5185 11.1032 18.0948 9.78407 16.3833 8.90964C16.8392 9.68692 17.0671 10.5277 17.0671 11.432C17.0671 12.8147 16.5738 13.9993 15.5873 14.9858C14.6082 15.9649 13.4274 16.4544 12.0447 16.4544C11.7981 16.4544 11.5577 16.4388 11.3237 16.4077L17.0308 7.63245C17.2348 7.73751 17.4375 7.84935 17.6389 7.96795C19.4101 9.0068 20.8189 10.382 21.8653 12.0935C22.0148 12.3551 22.0895 12.6129 22.0895 12.867C22.0895 13.1211 22.0148 13.379 21.8653 13.6405C20.8189 15.3595 19.4101 16.7384 17.6389 17.7773C15.8751 18.8086 14.0103 19.3243 12.0447 19.3243C11.215 19.3243 10.4025 19.2318 9.6074 19.0466L10.4457 17.7576ZM12.5829 8.56211C12.5829 8.71159 12.5305 8.83864 12.4259 8.94328C12.3213 9.04791 12.1942 9.10022 12.0447 9.10022C11.402 9.10022 10.8527 9.32817 10.3968 9.78407C9.94088 10.24 9.71293 10.7893 9.71293 11.432C9.71293 11.5815 9.66061 11.7086 9.55598 11.8132C9.45135 11.9178 9.32429 11.9702 9.17482 11.9702C9.02534 11.9702 8.89829 11.9178 8.79366 11.8132C8.68902 11.7086 8.63671 11.5815 8.63671 11.432C8.63671 10.4978 8.96929 9.69813 9.63445 9.03296C10.3071 8.36032 11.1105 8.024 12.0447 8.024C12.1942 8.024 12.3213 8.07632 12.4259 8.18095C12.5305 8.28558 12.5829 8.41264 12.5829 8.56211Z" fill="#8592AB"/>
<rect x="16.4839" y="5" width="1.49654" height="17.8573" rx="0.74827" transform="rotate(33.0386 16.4839 5)" fill="#8592AB"/>
</svg>
