<svg width="24" height="24" viewBox="0 0 24 24" fill="none" xmlns="http://www.w3.org/2000/svg">
<path d="M20.5714 12.5C19.4405 10.7245 18.0231 9.3967 16.3192 8.51649C16.7731 9.2989 17 10.1453 17 11.0556C17 12.4473 16.5089 13.6398 15.5268 14.6328C14.5521 15.6183 13.3765 16.1111 12 16.1111C10.6235 16.1111 9.4442 15.6183 8.46205 14.6328C7.48735 13.6398 7 12.4473 7 11.0556C7 10.1453 7.22693 9.2989 7.6808 8.51649C5.97693 9.3967 4.55952 10.7245 3.42857 12.5C4.41816 14.0422 5.65699 15.2723 7.14509 16.1901C8.64063 17.1004 10.2589 17.5556 12 17.5556C13.7411 17.5556 15.3557 17.1004 16.8438 16.1901C18.3393 15.2723 19.5818 14.0422 20.5714 12.5ZM12.3795 8.55035C12.4836 8.44502 12.5357 8.31713 12.5357 8.16667C12.5357 8.0162 12.4836 7.88831 12.3795 7.78299C12.2753 7.67766 12.1488 7.625 12 7.625C11.0699 7.625 10.2701 7.96354 9.60045 8.64062C8.93824 9.31019 8.60714 10.1152 8.60714 11.0556C8.60714 11.206 8.65923 11.3339 8.76339 11.4392C8.86756 11.5446 8.99405 11.5972 9.14286 11.5972C9.29167 11.5972 9.41816 11.5446 9.52232 11.4392C9.62649 11.3339 9.67857 11.206 9.67857 11.0556C9.67857 10.4086 9.90551 9.85561 10.3594 9.3967C10.8132 8.93779 11.3601 8.70833 12 8.70833C12.1488 8.70833 12.2753 8.65567 12.3795 8.55035ZM21.7768 11.7214C21.9256 11.9847 22 12.2442 22 12.5C22 12.7558 21.9256 13.0153 21.7768 13.2786C20.7351 15.009 19.3326 16.397 17.5692 17.4427C15.8132 18.4809 13.9568 19 12 19C10.0432 19 8.18304 18.4771 6.41964 17.4314C4.66369 16.3857 3.26488 15.0014 2.22321 13.2786C2.0744 13.0153 2 12.7558 2 12.5C2 12.2442 2.0744 11.9847 2.22321 11.7214C3.26488 9.99855 4.66369 8.61429 6.41964 7.56858C8.18304 6.52286 10.0432 6 12 6C13.9568 6 15.8132 6.52286 17.5692 7.56858C19.3326 8.61429 20.7351 9.99855 21.7768 11.7214Z" fill="#8592AB"/>
</svg>
