<svg width="30" height="30" viewBox="0 0 30 30" fill="none" xmlns="http://www.w3.org/2000/svg">
    <path fill-rule="evenodd" clip-rule="evenodd"
        d="M14.3861 3.03096C14.7472 2.7501 15.2528 2.7501 15.6139 3.03096L28.1139 12.7532C28.5499 13.0923 28.6284 13.7205 28.2894 14.1565C27.9503 14.5924 27.322 14.671 26.8861 14.3319L15 5.08717L3.11394 14.3319C2.67799 14.671 2.04972 14.5924 1.71065 14.1565C1.37158 13.7205 1.45011 13.0923 1.88606 12.7532L14.3861 3.03096Z"
        fill="#111111" />
    <path fill-rule="evenodd" clip-rule="evenodd"
        d="M5.2778 10.459C5.83009 10.459 6.2778 10.9067 6.2778 11.459V26.4312H12.6111V21.8756C12.6111 21.3234 13.0589 20.8756 13.6111 20.8756H16.3889C16.9412 20.8756 17.3889 21.3234 17.3889 21.8756V26.4312H23.7222V12.1534C23.7222 11.6011 24.17 11.1534 24.7222 11.1534C25.2745 11.1534 25.7222 11.6011 25.7222 12.1534V27.4312C25.7222 27.9835 25.2745 28.4312 24.7222 28.4312H5.2778C4.72552 28.4312 4.2778 27.9835 4.2778 27.4312V11.459C4.2778 10.9067 4.72552 10.459 5.2778 10.459ZM15.3889 26.4312V22.8756H14.6111V26.4312H15.3889Z"
        fill="#111111" />
</svg>