<svg width="30" height="30" viewBox="0 0 30 30" fill="none" xmlns="http://www.w3.org/2000/svg">
<path fill-rule="evenodd" clip-rule="evenodd" d="M20.2487 17.8024C19.8681 18.1534 19.275 18.1295 18.924 17.749L14.3115 12.749C13.9604 12.3684 13.9843 11.7753 14.3649 11.4242C14.7454 11.0731 15.3385 11.097 15.6896 11.4776L20.3021 16.4776C20.6532 16.8582 20.6293 17.4513 20.2487 17.8024Z" fill="white"/>
<path fill-rule="evenodd" clip-rule="evenodd" d="M15.6357 11.4242C16.0162 11.7753 16.0401 12.3684 15.6891 12.749L11.0766 17.749C10.7255 18.1295 10.1324 18.1534 9.75182 17.8024C9.37125 17.4513 9.34734 16.8582 9.69842 16.4776L14.3109 11.4776C14.662 11.097 15.2551 11.0731 15.6357 11.4242Z" fill="white"/>
</svg>
