<svg width="32" height="33" viewBox="0 0 32 33" fill="none" xmlns="http://www.w3.org/2000/svg">
    <path
        d="M20 17.7666H10.6667C10.12 17.7666 9.66669 17.3133 9.66669 16.7666C9.66669 16.2199 10.12 15.7666 10.6667 15.7666H20C20.5467 15.7666 21 16.2199 21 16.7666C21 17.3133 20.5467 17.7666 20 17.7666Z"
        fill="white" />
    <path
        d="M16.5067 23.0996H10.6667C10.12 23.0996 9.66669 22.6463 9.66669 22.0996C9.66669 21.5529 10.12 21.0996 10.6667 21.0996H16.5067C17.0534 21.0996 17.5067 21.5529 17.5067 22.0996C17.5067 22.6463 17.0534 23.0996 16.5067 23.0996Z"
        fill="white" />
    <path
        d="M18.6667 9.50033H13.3334C12.0534 9.50033 9.66669 9.50033 9.66669 5.83366C9.66669 2.16699 12.0534 2.16699 13.3334 2.16699H18.6667C19.9467 2.16699 22.3334 2.16699 22.3334 5.83366C22.3334 7.11366 22.3334 9.50033 18.6667 9.50033ZM13.3334 4.16699C12.0134 4.16699 11.6667 4.16699 11.6667 5.83366C11.6667 7.50033 12.0134 7.50033 13.3334 7.50033H18.6667C20.3334 7.50033 20.3334 7.15366 20.3334 5.83366C20.3334 4.16699 19.9867 4.16699 18.6667 4.16699H13.3334Z"
        fill="white" />
    <path
        d="M20 30.8329H12C4.50667 30.8329 3 27.3929 3 21.8329V13.8329C3 7.75292 5.2 5.15292 10.6133 4.87292C11.1467 4.84625 11.64 5.25958 11.6667 5.81958C11.6933 6.37958 11.2667 6.83292 10.72 6.85958C6.93333 7.07292 5 8.20625 5 13.8329V21.8329C5 26.7663 5.97333 28.8329 12 28.8329H20C26.0267 28.8329 27 26.7663 27 21.8329V13.8329C27 8.20625 25.0667 7.07292 21.28 6.85958C20.7333 6.83292 20.3067 6.35292 20.3333 5.80625C20.36 5.25958 20.84 4.83292 21.3867 4.85958C26.8 5.15292 29 7.75292 29 13.8196V21.8196C29 27.3929 27.4933 30.8329 20 30.8329Z"
        fill="white" />
</svg>