<svg width="30" height="36" viewBox="0 0 30 36" fill="none" xmlns="http://www.w3.org/2000/svg">
    <path fill-rule="evenodd" clip-rule="evenodd"
        d="M2.75 13.5008C2.75 10.3528 4.87665 7.80078 7.5 7.80078H22.5C25.1234 7.80078 27.25 10.3528 27.25 13.5008V25.5008C27.25 28.6488 25.1234 31.2008 22.5 31.2008H7.5C4.87665 31.2008 2.75 28.6488 2.75 25.5008V13.5008ZM7.5 10.2008C5.98122 10.2008 4.75 11.6782 4.75 13.5008V25.5008C4.75 27.3233 5.98122 28.8008 7.5 28.8008H22.5C24.0188 28.8008 25.25 27.3233 25.25 25.5008V13.5008C25.25 11.6782 24.0188 10.2008 22.5 10.2008H7.5Z"
        fill="#111111" />
    <path fill-rule="evenodd" clip-rule="evenodd"
        d="M10 4.80078C10.5523 4.80078 11 5.33804 11 6.00078V9.00078C11 9.66352 10.5523 10.2008 10 10.2008C9.44772 10.2008 9 9.66352 9 9.00078V6.00078C9 5.33804 9.44772 4.80078 10 4.80078Z"
        fill="#111111" />
    <path fill-rule="evenodd" clip-rule="evenodd"
        d="M20 4.80078C20.5523 4.80078 21 5.33804 21 6.00078V9.00078C21 9.66352 20.5523 10.2008 20 10.2008C19.4477 10.2008 19 9.66352 19 9.00078V6.00078C19 5.33804 19.4477 4.80078 20 4.80078Z"
        fill="#111111" />
    <path
        d="M11.25 15C11.25 15.8284 10.6904 16.5 10 16.5C9.30964 16.5 8.75 15.8284 8.75 15C8.75 14.1716 9.30964 13.5 10 13.5C10.6904 13.5 11.25 14.1716 11.25 15Z"
        fill="#111111" />
    <path
        d="M16.25 15C16.25 15.8284 15.6904 16.5 15 16.5C14.3096 16.5 13.75 15.8284 13.75 15C13.75 14.1716 14.3096 13.5 15 13.5C15.6904 13.5 16.25 14.1716 16.25 15Z"
        fill="#111111" />
    <path
        d="M21.25 15C21.25 15.8284 20.6904 16.5 20 16.5C19.3096 16.5 18.75 15.8284 18.75 15C18.75 14.1716 19.3096 13.5 20 13.5C20.6904 13.5 21.25 14.1716 21.25 15Z"
        fill="#111111" />
    <path
        d="M11.25 21C11.25 21.8284 10.6904 22.5 10 22.5C9.30964 22.5 8.75 21.8284 8.75 21C8.75 20.1716 9.30964 19.5 10 19.5C10.6904 19.5 11.25 20.1716 11.25 21Z"
        fill="#111111" />
</svg>