<svg width="32" height="33" viewBox="0 0 32 33" fill="none" xmlns="http://www.w3.org/2000/svg">
    <path
        d="M14.4133 23.0995C14.16 23.0995 13.9067 23.0062 13.7067 22.8062L11.7067 20.8062C11.32 20.4195 11.32 19.7795 11.7067 19.3929C12.0933 19.0062 12.7333 19.0062 13.12 19.3929L14.4133 20.6862L19.04 16.0595C19.4267 15.6729 20.0667 15.6729 20.4533 16.0595C20.84 16.4462 20.84 17.0862 20.4533 17.4729L15.12 22.8062C14.9333 23.0062 14.6667 23.0995 14.4133 23.0995Z"
        fill="white" />
    <path
        d="M18.6667 9.50033H13.3333C12.0533 9.50033 9.66666 9.50033 9.66666 5.83366C9.66666 2.16699 12.0533 2.16699 13.3333 2.16699H18.6667C19.9467 2.16699 22.3333 2.16699 22.3333 5.83366C22.3333 7.11366 22.3333 9.50033 18.6667 9.50033ZM13.3333 4.16699C12.0133 4.16699 11.6667 4.16699 11.6667 5.83366C11.6667 7.50033 12.0133 7.50033 13.3333 7.50033H18.6667C20.3333 7.50033 20.3333 7.15366 20.3333 5.83366C20.3333 4.16699 19.9867 4.16699 18.6667 4.16699H13.3333Z"
        fill="white" />
    <path
        d="M20 30.8329H12C4.50667 30.8329 3 27.3929 3 21.8329V13.8329C3 7.75292 5.2 5.15292 10.6133 4.87292C11.16 4.84625 11.64 5.25958 11.6667 5.81958C11.6933 6.37958 11.2667 6.83292 10.72 6.85958C6.93333 7.07292 5 8.20625 5 13.8329V21.8329C5 26.7663 5.97333 28.8329 12 28.8329H20C26.0267 28.8329 27 26.7663 27 21.8329V13.8329C27 8.20625 25.0667 7.07292 21.28 6.85958C20.7333 6.83292 20.3067 6.35292 20.3333 5.80625C20.36 5.25958 20.8267 4.83292 21.3867 4.85958C26.8 5.15292 29 7.75292 29 13.8196V21.8196C29 27.3929 27.4933 30.8329 20 30.8329Z"
        fill="white" />
</svg>