<svg width="33" height="33" viewBox="0 0 33 33" fill="none" xmlns="http://www.w3.org/2000/svg">
    <rect x="0.777344" y="0.652344" width="32" height="32" rx="6" fill="#FF1700" fill-opacity="0.3" />
    <path
        d="M16.7773 27.4023C10.8473 27.4023 6.02734 22.5823 6.02734 16.6523C6.02734 10.7223 10.8473 5.90234 16.7773 5.90234C22.7073 5.90234 27.5273 10.7223 27.5273 16.6523C27.5273 22.5823 22.7073 27.4023 16.7773 27.4023ZM16.7773 7.40234C11.6773 7.40234 7.52734 11.5523 7.52734 16.6523C7.52734 21.7523 11.6773 25.9023 16.7773 25.9023C21.8773 25.9023 26.0273 21.7523 26.0273 16.6523C26.0273 11.5523 21.8773 7.40234 16.7773 7.40234Z"
        fill="#FF1700" />
    <path
        d="M13.9467 20.2317C13.7567 20.2317 13.5667 20.1617 13.4167 20.0117C13.1267 19.7217 13.1267 19.2417 13.4167 18.9517L19.0767 13.2917C19.3667 13.0017 19.8467 13.0017 20.1367 13.2917C20.4267 13.5817 20.4267 14.0617 20.1367 14.3517L14.4767 20.0117C14.3367 20.1617 14.1367 20.2317 13.9467 20.2317Z"
        fill="#FF1700" />
    <path
        d="M19.6067 20.2317C19.4167 20.2317 19.2267 20.1617 19.0767 20.0117L13.4167 14.3517C13.1267 14.0617 13.1267 13.5817 13.4167 13.2917C13.7067 13.0017 14.1867 13.0017 14.4767 13.2917L20.1367 18.9517C20.4267 19.2417 20.4267 19.7217 20.1367 20.0117C19.9867 20.1617 19.7967 20.2317 19.6067 20.2317Z"
        fill="#FF1700" />
</svg>