<svg width="40" height="40" viewBox="0 0 40 40" fill="none" xmlns="http://www.w3.org/2000/svg">
<g clip-path="url(#clip0_913_4436)">
<rect width="40" height="40" rx="8" fill="#F5F5F5"/>
<path fill-rule="evenodd" clip-rule="evenodd" d="M34.4142 39.6295C33.6524 39.8703 32.8414 40.0002 32 40.0002H7.99999C7.15863 40.0002 6.34761 39.8703 5.58588 39.6295C5.45452 39.4634 5.3761 39.2535 5.3761 39.0253C5.3761 35.6347 6.69258 32.4308 9.08303 30.0036C11.4853 27.5645 14.6699 26.2212 18.0502 26.2212H21.9499C25.3302 26.2212 28.5148 27.5645 30.917 30.0036C33.3075 32.4308 34.6239 35.6347 34.6239 39.0253C34.6239 39.2535 34.5455 39.4634 34.4142 39.6295ZM20.0001 6.72266C15.1619 6.72266 11.2257 10.6588 11.2257 15.497C11.2257 20.3352 15.1619 24.2714 20.0001 24.2714C24.8382 24.2714 28.7744 20.3352 28.7744 15.497C28.7744 10.6588 24.8382 6.72266 20.0001 6.72266Z" fill="white"/>
</g>
<defs>
<clipPath id="clip0_913_4436">
<rect width="40" height="40" rx="20" fill="white"/>
</clipPath>
</defs>
</svg>
