<svg width="18" height="18" viewBox="0 0 18 18" fill="none" xmlns="http://www.w3.org/2000/svg">
<g clip-path="url(#clip0_190_123114)">
<path d="M9 18C13.9706 18 18 13.9706 18 9C18 4.02944 13.9706 0 9 0C4.02944 0 0 4.02944 0 9C0 13.9706 4.02944 18 9 18Z" fill="#F0F0F0"/>
<path d="M1.86045 3.51953C1.1535 4.43932 0.620423 5.49946 0.310028 6.65114H4.99207L1.86045 3.51953Z" fill="#0052B4"/>
<path d="M17.6899 6.65111C17.3795 5.49946 16.8464 4.43932 16.1395 3.51953L13.008 6.65111H17.6899Z" fill="#0052B4"/>
<path d="M0.310028 11.3477C0.620458 12.4993 1.15353 13.5594 1.86045 14.4792L4.99196 11.3477H0.310028Z" fill="#0052B4"/>
<path d="M14.4794 1.85905C13.5596 1.1521 12.4995 0.619023 11.3478 0.308594V4.9906L14.4794 1.85905Z" fill="#0052B4"/>
<path d="M3.5206 16.1393C4.44039 16.8463 5.50053 17.3794 6.65218 17.6898V13.0078L3.5206 16.1393Z" fill="#0052B4"/>
<path d="M6.65214 0.308594C5.50049 0.619023 4.44036 1.1521 3.5206 1.85902L6.65214 4.99056V0.308594Z" fill="#0052B4"/>
<path d="M11.3478 17.6898C12.4995 17.3794 13.5596 16.8463 14.4794 16.1394L11.3478 13.0078V17.6898Z" fill="#0052B4"/>
<path d="M13.008 11.3477L16.1395 14.4792C16.8464 13.5595 17.3795 12.4993 17.6899 11.3477H13.008Z" fill="#0052B4"/>
<path d="M17.9238 7.8261H10.174H10.1739V0.0761836C9.78964 0.0261563 9.39786 0 9 0C8.60207 0 8.21035 0.0261563 7.8261 0.0761836V7.82603V7.82606H0.0761836C0.0261563 8.21036 0 8.60214 0 9C0 9.39793 0.0261563 9.78964 0.0761836 10.1739H7.82603H7.82606V17.9238C8.21036 17.9738 8.60207 18 9 18C9.39786 18 9.78964 17.9739 10.1739 17.9238V10.174V10.1739H17.9238C17.9738 9.78964 18 9.39793 18 9C18 8.60214 17.9738 8.21035 17.9238 7.8261Z" fill="#D80027"/>
<path d="M11.3478 11.3477L15.3639 15.3638C15.5487 15.1792 15.7249 14.9861 15.893 14.786L12.4546 11.3477H11.3478V11.3477Z" fill="#D80027"/>
<path d="M6.65216 11.3477H6.65209L2.63602 15.3637C2.82066 15.5484 3.0137 15.7246 3.21381 15.8928L6.65216 12.4543V11.3477Z" fill="#D80027"/>
<path d="M6.65217 6.65293V6.65286L2.63606 2.63672C2.45135 2.82136 2.27514 3.0144 2.10703 3.21451L5.54541 6.6529H6.65217V6.65293Z" fill="#D80027"/>
<path d="M11.3478 6.65064L15.364 2.63446C15.1793 2.44975 14.9863 2.27355 14.7862 2.10547L11.3478 5.54386V6.65064Z" fill="#D80027"/>
</g>
<defs>
<clipPath id="clip0_190_123114">
<rect width="18" height="18" fill="white"/>
</clipPath>
</defs>
</svg>
